# xmcd
#
# Track frame offsets:
#	150
#	13540
#	32170
#	42171
#	55928
#	69990
#	85268
#	99680
#	112996
#	129509
#	152731
#	165501
#	180303
#	191365
#	199534
#	217082
#
# Disc length: 3118 seconds
# Revision: 0
# Processed by: cddbd v1.5.2PL0 Copyright (c) Steve Scherf et al.
# Submitted via: dBpowerAMP V12.0
#
DISCID=cc0c2c10
DTITLE=Dr Feelgood - I'm A Man - The Best Of The Wilko Johnson Years (1974-1977)
DYEAR=2015
DGENRE=Pub-Rock
TTITLE0=Roxette
TTITLE1=Cheque Book
TTITLE2=Twenty Yards Behind
TTITLE3=Keep It Out Of Sight
TTITLE4=Back In The Night
TTITLE5=Watch Your Step
TTITLE6=Rolling And Tumbling
TTITLE7=Don't Let Your Daddy Know
TTITLE8=Riot In Cell Block Number Nine
TTITLE9=I'm A Man
TTITLE10=All Through The City
TTITLE11=Checkin' Up On My Baby
TTITLE12=Everybody's Carrying A Gun
TTITLE13=Lights Out
TTITLE14=Sneakin' Susicion
TTITLE15=Going Back Home
EXTD=
EXTT0=
EXTT1=
EXTT2=
EXTT3=
EXTT4=
EXTT5=
EXTT6=
EXTT7=
EXTT8=
EXTT9=
EXTT10=
EXTT11=
EXTT12=
EXTT13=
EXTT14=
EXTT15=
PLAYORDER=
